# xmcd CD database file
# Copyright (C) 1993-1998 Ti Kan
#
# Track frame offsets:
# 150
# 21375
# 33345
# 45745
# 51285
# 54975
# 59867
# 75532
# 85542
# 104007
# 120195
# 139005
# 150545
# 160607
# 189982
# 198195
#
# Disc length: 2710 seconds
# Revision: 0
# Processed by: cddbd v1.4b41PL1 Copyright (c) Steve Scherf et al.
# Submitted via: CDSpectrumPro v3.3.333
#
DISCID=c80a9410
DTITLE=Electric Leprechaun - The Art Of War [CD2]
DYEAR=1900
DGENRE=
TTITLE0=Rockstar
TTITLE1=I Need An Asprin
TTITLE2=The Unabomber
TTITLE3=Rude
TTITLE4=Safety Pins
TTITLE5=They're Not Robots
TTITLE6=A Village Very Small
TTITLE7=Fake Rap
TTITLE8=The Giraffe
TTITLE9=Cops And Robbers
TTITLE10=One-Eye
TTITLE11=Even Exchange
TTITLE12=Unheard Of Dominions
TTITLE13=Shampoo Symphony
TTITLE14=Hollywood Square
TTITLE15=Rachael
EXTD=Mark Hudson- Vocals       John Kelly- Guitar                             
EXTD=                                    
EXTT0=
EXTT1=
EXTT2=
EXTT3=
EXTT4=
EXTT5=
EXTT6=
EXTT7=
EXTT8=
EXTT9=
EXTT10=
EXTT11=
EXTT12=
EXTT13=
EXTT14=
EXTT15=
PLAYORDER=
